# xmcd
#
# Track frame offsets: 
#        183
#        25763
#        49073
#
# Disc length: 935 seconds
#
# Revision: 0
# Processed by: cddbd v1.5.2PL0 Copyright (c) Steve Scherf et al.
# Submitted via: ExactAudioCopy v1.0b3
#
DISCID=1b03a503
DTITLE=Mediteria - Is E.T. On X.T.C.? (Remix)
DYEAR=1900
DGENRE=
TTITLE0=Is E.T. On X.T.C.? (Commander Night Flight Mix)
TTITLE1=Is E.T. On X.T.C.? (X.T.C. Mix)
TTITLE2=Trance Dance (Monoton Mix)
EXTD=
EXTT0=
EXTT1=
EXTT2=
PLAYORDER=
